<svg xmlns="http://www.w3.org/2000/svg" xmlns:xlink="http://www.w3.org/1999/xlink" width="210" height="210" viewBox="0 0 210 210">
  <defs>
    <radialGradient id="radial-gradient" cx="0.058" cy="0" r="1.374" gradientTransform="matrix(0.686, 0.728, -0.728, 0.686, 0.018, -0.042)" gradientUnits="objectBoundingBox">
      <stop offset="0" stop-color="#4a80e2"/>
      <stop offset="1" stop-color="#0a3f9e"/>
    </radialGradient>
  </defs>
  <g id="Group_618" data-name="Group 618" transform="translate(-639 -1911)">
    <g id="Group_616" data-name="Group 616" transform="translate(-47 356)">
      <rect id="Rectangle_26" data-name="Rectangle 26" width="210" height="210" rx="37" transform="translate(686 1555)" fill="url(#radial-gradient)"/>
      <g id="Path_58" data-name="Path 58" transform="translate(686 1555)" fill="#efefef" opacity="0.903">
        <path d="M 208.5 78.5 L 1.5 78.5 L 1.5 37 C 1.5 32.20685958862305 2.438416719436646 27.55791664123535 4.289138793945312 23.18224906921387 C 6.077083110809326 18.95513916015625 8.636972427368164 15.15844440460205 11.8977222442627 11.8977222442627 C 15.15844440460205 8.636972427368164 18.95513916015625 6.077083110809326 23.18224906921387 4.289138793945312 C 27.55791664123535 2.438416719436646 32.20685958862305 1.5 37 1.5 L 173 1.5 C 177.7931365966797 1.5 182.4421081542969 2.438416719436646 186.8177490234375 4.289138793945312 C 191.0448913574219 6.077083110809326 194.841552734375 8.636972427368164 198.1023101806641 11.8977222442627 C 201.3630218505859 15.15844440460205 203.9229125976562 18.95513916015625 205.7108612060547 23.18224906921387 C 207.5615844726562 27.55791664123535 208.5 32.20685958862305 208.5 37 L 208.5 78.5 Z" stroke="none"/>
        <path d="M 37 3 C 32.40870666503906 3 27.95635986328125 3.898529052734375 23.76658630371094 5.670646667480469 C 19.71826171875 7.382972717285156 16.08184814453125 9.834915161132812 12.95838928222656 12.95838165283203 C 9.834915161132812 16.08185195922852 7.382965087890625 19.71826553344727 5.670654296875 23.7665901184082 C 3.898529052734375 27.95635223388672 3 32.40870666503906 3 37 L 3 77 L 207 77 L 207 37 C 207 32.40870666503906 206.1014709472656 27.95635223388672 204.329345703125 23.7665901184082 C 202.6170349121094 19.71826553344727 200.1650848388672 16.08185195922852 197.0416107177734 12.95838165283203 C 193.9181518554688 9.834915161132812 190.28173828125 7.382972717285156 186.2334136962891 5.670646667480469 C 182.0436401367188 3.898529052734375 177.5912933349609 3 173 3 L 37 3 M 37 0 L 173 0 C 193.4345245361328 0 210 16.56547164916992 210 37 L 210 80 L 0 80 L 0 37 C 0 16.56547164916992 16.56547546386719 0 37 0 Z" stroke="none" fill="#487ee0"/>
      </g>
    </g>
  </g>
</svg>
